PathFileType	4	(X/Y/Z)	/tmp/tmpjnq7zxqp/Me/MarkerData/slow walking02_segment_0.trc
DataRate	CameraRate	NumFrames	NumMarkers	Units	OrigDataRate	OrigDataStartFrame	OrigNumFrames
100.093	100.093	9	39	m	100.093	0	1077
Frame#	Time	C7			CLAV			LANK			LASI			LBHD			LELB			LFHD			LFIN			LFRM			LHEE			LKNE			LPSI			LSHO			LTHI			LTIB			LTOE			LUPA			LWRA			LWRB			RANK			RASI			RBAK			RBHD			RELB			RFHD			RFIN			RFRM			RHEE			RKNE			RPSI			RSHO			RTHI			RTIB			RTOE			RUPA			RWRA			RWRB			STRN			T10		
		X1	Y1	Z1	X2	Y2	Z2	X3	Y3	Z3	X4	Y4	Z4	X5	Y5	Z5	X6	Y6	Z6	X7	Y7	Z7	X8	Y8	Z8	X9	Y9	Z9	X10	Y10	Z10	X11	Y11	Z11	X12	Y12	Z12	X13	Y13	Z13	X14	Y14	Z14	X15	Y15	Z15	X16	Y16	Z16	X17	Y17	Z17	X18	Y18	Z18	X19	Y19	Z19	X20	Y20	Z20	X21	Y21	Z21	X22	Y22	Z22	X23	Y23	Z23	X24	Y24	Z24	X25	Y25	Z25	X26	Y26	Z26	X27	Y27	Z27	X28	Y28	Z28	X29	Y29	Z29	X30	Y30	Z30	X31	Y31	Z31	X32	Y32	Z32	X33	Y33	Z33	X34	Y34	Z34	X35	Y35	Z35	X36	Y36	Z36	X37	Y37	Z37	X38	Y38	Z38	X39	Y39	Z39

1	0	-0.200584	1.43586	0.0493672	-0.36251	1.35634	0.0235435	0.00179184	0.104949	0.153963	-0.289737	0.96565	0.211502	-0.304671	1.58032	0.116242	-0.431543	1.09418	0.317688	-0.409152	1.64249	0.066003	-0.678487	0.878926	0.261849	-0.515185	0.959605	0.293448	0.0777197	0.0804597	0.098121	-0.189745	0.456009	0.190457	-0.15223	0.979113	0.0804436	-0.304609	1.42117	0.208533	-0.237291	0.639452	0.222282	-0.0603299	0.244014	0.190681	-0.160085	0.0631547	0.0964821	-0.374758	1.26705	0.293849	-0.605773	0.941832	0.222011	-0.583887	0.902342	0.279745	-0.516647	0.101687	-0.0956168	-0.291391	0.965684	-0.106139	-0.128483	1.29838	-0.0532927	-0.256131	1.57399	-0.0244715	-0.182318	1.07575	-0.226384	-0.364353	1.62749	-0.0548412	-0.188154	0.729733	-0.272528	-0.169568	0.988783	-0.238358	-0.452551	0.0507926	-0.03239	-0.444895	0.499478	-0.0966293	-0.15036	0.971441	0.0176025	-0.24838	1.41047	-0.134179	-0.356639	0.814257	-0.133178	-0.433953	0.373818	-0.126642	-0.681675	0.0988459	-0.0447905	-0.214439	1.16901	-0.214792	-0.215923	0.822249	-0.211897	-0.157537	0.821648	-0.256214	-0.395094	1.19665	0.0302428	-0.150892	1.20704	0.0700434
2	0.00999071	-0.201262	1.43528	0.0472111	-0.363478	1.35605	0.0214757	0.00784747	0.107251	0.154678	-0.290938	0.965049	0.210106	-0.305258	1.58017	0.113796	-0.429837	1.09305	0.315676	-0.409654	1.64233	0.0632873	-0.673364	0.873523	0.260657	-0.511481	0.957047	0.292169	0.0850459	0.0845702	0.0987068	-0.189796	0.455661	0.190391	-0.153744	0.978556	0.0784489	-0.305477	1.42104	0.206374	-0.2372	0.639402	0.22105	-0.0563373	0.245639	0.191239	-0.152251	0.0630726	0.0966358	-0.374787	1.26654	0.291791	-0.601443	0.937425	0.220876	-0.579441	0.898641	0.279043	-0.5126	0.100298	-0.0957304	-0.293665	0.965583	-0.107581	-0.129544	1.29732	-0.0551905	-0.256624	1.57337	-0.026959	-0.185685	1.07401	-0.227919	-0.364759	1.62693	-0.057464	-0.19563	0.728126	-0.273444	-0.173833	0.986855	-0.239679	-0.446496	0.0521609	-0.0325499	-0.44766	0.49992	-0.0973419	-0.152197	0.97098	0.0155902	-0.249072	1.40957	-0.136332	-0.360152	0.814656	-0.134309	-0.434533	0.372899	-0.126954	-0.676719	0.0927669	-0.0434212	-0.216867	1.1676	-0.216404	-0.22145	0.821014	-0.212191	-0.163743	0.819576	-0.257	-0.396429	1.19651	0.0285677	-0.151777	1.2065	0.0683881
3	0.0199814	-0.201998	1.43482	0.0449283	-0.36451	1.35595	0.0193986	0.0136243	0.109874	0.155381	-0.292138	0.964684	0.208544	-0.305885	1.58018	0.111298	-0.42803	1.09199	0.313534	-0.410195	1.64232	0.0605657	-0.667616	0.867773	0.259694	-0.507312	0.954484	0.290957	0.091512	0.0885039	0.0992771	-0.190264	0.455394	0.190285	-0.155467	0.978211	0.0761699	-0.306154	1.42102	0.204179	-0.238083	0.639251	0.220256	-0.052662	0.247639	0.191764	-0.144428	0.063007	0.0967631	-0.374759	1.26618	0.28966	-0.596634	0.932445	0.219733	-0.574231	0.894856	0.278188	-0.508193	0.0988133	-0.0960063	-0.296275	0.965662	-0.109101	-0.130736	1.29634	-0.0572116	-0.257177	1.57294	-0.0294559	-0.189302	1.07249	-0.229483	-0.365242	1.62655	-0.0601241	-0.203503	0.726728	-0.274102	-0.178399	0.985115	-0.240972	-0.440767	0.0534181	-0.0332328	-0.449919	0.500133	-0.0981829	-0.154286	0.970652	0.0132632	-0.249855	1.40887	-0.13853	-0.36392	0.815085	-0.135411	-0.435282	0.372391	-0.127794	-0.671691	0.0870132	-0.0424027	-0.21948	1.16639	-0.218067	-0.228301	0.819864	-0.213053	-0.170298	0.81767	-0.257721	-0.397964	1.19654	0.0269018	-0.152601	1.20606	0.066592
4	0.0299721	-0.202781	1.43449	0.0425577	-0.365572	1.35605	0.0173146	0.0190816	0.112741	0.156046	-0.293424	0.964431	0.206934	-0.306525	1.58033	0.108764	-0.426035	1.09105	0.311289	-0.41077	1.64248	0.0578161	-0.661207	0.861717	0.258967	-0.502727	0.952017	0.289633	0.0975943	0.0927526	0.0998032	-0.191277	0.455175	0.190148	-0.157424	0.978049	0.0736245	-0.306698	1.42116	0.201957	-0.239664	0.639076	0.219674	-0.0496638	0.249851	0.191355	-0.136585	0.0628873	0.0968017	-0.374632	1.26595	0.287473	-0.591491	0.927498	0.218744	-0.568482	0.890993	0.277545	-0.503358	0.0973717	-0.0963512	-0.29924	0.965973	-0.110621	-0.132055	1.29549	-0.0593419	-0.257817	1.57268	-0.0319617	-0.193175	1.07117	-0.231046	-0.36576	1.62634	-0.0627462	-0.211806	0.725597	-0.274694	-0.18326	0.983564	-0.24226	-0.434879	0.0546056	-0.0338279	-0.451964	0.500228	-0.0991281	-0.156579	0.970445	0.0106345	-0.25078	1.40837	-0.140795	-0.367814	0.815476	-0.136403	-0.436414	0.372168	-0.128961	-0.666654	0.0814047	-0.0418701	-0.222338	1.16536	-0.219769	-0.235131	0.818981	-0.213619	-0.177168	0.816	-0.258359	-0.399667	1.19675	0.0252203	-0.153904	1.20558	0.0646225
5	0.0399629	-0.203566	1.43434	0.0401115	-0.36669	1.35635	0.0152491	0.0241403	0.115973	0.156672	-0.294819	0.964292	0.205311	-0.307182	1.58068	0.106206	-0.42375	1.09029	0.30896	-0.411376	1.6428	0.0550653	-0.654118	0.855404	0.25848	-0.497668	0.949616	0.288376	0.103405	0.0974902	0.100255	-0.192991	0.454965	0.190016	-0.159599	0.978025	0.0708684	-0.307198	1.42148	0.199708	-0.241406	0.639092	0.218802	-0.047044	0.252296	0.190747	-0.128642	0.062705	0.0966272	-0.374366	1.26587	0.285266	-0.585889	0.922462	0.2179	-0.562214	0.887084	0.277134	-0.49847	0.0964178	-0.0969883	-0.302352	0.966582	-0.112117	-0.133483	1.2948	-0.0616014	-0.258496	1.57257	-0.0344945	-0.197262	1.06999	-0.232598	-0.366415	1.62627	-0.0654806	-0.220402	0.724698	-0.275119	-0.188394	0.982222	-0.243569	-0.428718	0.0557072	-0.0341683	-0.454104	0.500448	-0.100174	-0.158973	0.970415	0.00779873	-0.251932	1.40811	-0.143166	-0.371598	0.815719	-0.137229	-0.438038	0.372055	-0.130228	-0.661525	0.0762457	-0.0419844	-0.225474	1.16456	-0.221531	-0.242207	0.818365	-0.214026	-0.184337	0.814582	-0.258922	-0.40149	1.19716	0.0234869	-0.155641	1.20512	0.0624886
6	0.0499536	-0.204334	1.43436	0.0375687	-0.367834	1.35686	0.0132274	0.0287038	0.119676	0.157255	-0.296245	0.964338	0.203666	-0.307866	1.58123	0.103645	-0.4213	1.08963	0.306565	-0.412001	1.64328	0.052304	-0.646311	0.848929	0.258231	-0.492145	0.947273	0.287195	0.108753	0.102832	0.100618	-0.195542	0.45474	0.189914	-0.161979	0.978109	0.0679818	-0.307586	1.42196	0.197454	-0.24334	0.639275	0.217573	-0.0450624	0.254995	0.190544	-0.120734	0.0625806	0.0966044	-0.373946	1.26594	0.283069	-0.579784	0.917309	0.217184	-0.555338	0.883185	0.276865	-0.493338	0.0959107	-0.0976837	-0.305614	0.96738	-0.113657	-0.135022	1.29427	-0.0640404	-0.259203	1.57265	-0.0370884	-0.201606	1.06902	-0.234187	-0.367098	1.62636	-0.0681945	-0.229262	0.724021	-0.275363	-0.193788	0.981093	-0.244887	-0.422185	0.0566402	-0.034406	-0.456539	0.500763	-0.101243	-0.161446	0.970603	0.00486017	-0.253362	1.4081	-0.145633	-0.375112	0.815845	-0.137974	-0.439918	0.371953	-0.131426	-0.656094	0.0719723	-0.0426153	-0.228859	1.16397	-0.223368	-0.249438	0.818078	-0.214348	-0.191977	0.813389	-0.259581	-0.403384	1.1978	0.0216826	-0.157221	1.20487	0.0602128
7	0.0599443	-0.205147	1.43451	0.0349542	-0.368989	1.35755	0.0112517	0.0327259	0.123744	0.157756	-0.297698	0.964566	0.201915	-0.308568	1.58194	0.101086	-0.41864	1.0891	0.304097	-0.412653	1.64392	0.0495721	-0.637708	0.84236	0.258265	-0.486145	0.945033	0.286042	0.113446	0.108899	0.100834	-0.19896	0.454502	0.189899	-0.164424	0.978338	0.0650526	-0.307896	1.42261	0.195226	-0.245686	0.639626	0.216113	-0.043314	0.258172	0.190474	-0.112846	0.0625683	0.0967312	-0.373355	1.26613	0.280903	-0.573152	0.912109	0.216667	-0.547808	0.879335	0.276787	-0.487479	0.0954925	-0.0979523	-0.309485	0.967882	-0.115431	-0.136691	1.29393	-0.0666948	-0.259973	1.57291	-0.0396986	-0.206205	1.06827	-0.235831	-0.367801	1.62663	-0.0708182	-0.238502	0.723578	-0.275512	-0.199459	0.980158	-0.246199	-0.415364	0.0571898	-0.0345522	-0.459183	0.500904	-0.102364	-0.16426	0.971	0.00188683	-0.254945	1.40818	-0.148062	-0.378313	0.815961	-0.138819	-0.441888	0.371881	-0.132656	-0.650284	0.0686965	-0.043229	-0.232397	1.16356	-0.225206	-0.256973	0.818074	-0.214707	-0.199937	0.8124	-0.260101	-0.405325	1.19867	0.0198268	-0.158664	1.20481	0.0577738
8	0.069935	-0.205974	1.43482	0.032276	-0.370197	1.35842	0.00934607	0.0361165	0.128211	0.158132	-0.299243	0.964987	0.199888	-0.309263	1.58279	0.0985196	-0.41577	1.08871	0.30159	-0.413339	1.64471	0.0468756	-0.62829	0.835673	0.25862	-0.479675	0.942916	0.28488	0.117385	0.115804	0.10086	-0.203322	0.454282	0.190082	-0.166696	0.978803	0.0622023	-0.308055	1.42339	0.193031	-0.248906	0.639985	0.214804	-0.0426559	0.261439	0.190007	-0.105027	0.0625519	0.0967528	-0.372606	1.26645	0.278773	-0.566045	0.906954	0.21631	-0.539626	0.875566	0.276844	-0.480908	0.0950548	-0.0976289	-0.313311	0.968544	-0.117193	-0.138483	1.2938	-0.0695705	-0.260789	1.57333	-0.0422762	-0.211051	1.06773	-0.23751	-0.368596	1.62702	-0.0735262	-0.248157	0.72337	-0.275608	-0.205419	0.979455	-0.24755	-0.408105	0.0574138	-0.0346162	-0.461868	0.500926	-0.103579	-0.166891	0.971613	-0.00106912	-0.256569	1.40841	-0.15047	-0.381256	0.816158	-0.139905	-0.443534	0.371767	-0.13372	-0.644092	0.0663608	-0.0432494	-0.23612	1.16333	-0.227049	-0.264897	0.81832	-0.215006	-0.208142	0.811609	-0.260451	-0.407284	1.19972	0.0179403	-0.160108	1.20493	0.0551264
9	0.0799257	-0.206799	1.43531	0.029554	-0.371444	1.35944	0.00752054	0.0387586	0.133091	0.158431	-0.300919	0.965631	0.197545	-0.309957	1.58383	0.096022	-0.412697	1.08848	0.29907	-0.414054	1.64567	0.0442111	-0.618186	0.828989	0.259259	-0.472767	0.940936	0.283694	0.120352	0.12353	0.100703	-0.208718	0.454086	0.190587	-0.168812	0.979416	0.0594042	-0.308047	1.42427	0.190883	-0.252904	0.64037	0.213665	-0.0429239	0.264935	0.189736	-0.0971723	0.0623508	0.0966467	-0.37165	1.2669	0.276679	-0.558477	0.901871	0.216069	-0.530878	0.871853	0.276602	-0.473797	0.0946681	-0.0968973	-0.316849	0.969441	-0.118859	-0.140391	1.2939	-0.0726851	-0.261598	1.57391	-0.0448115	-0.216141	1.06739	-0.239235	-0.369382	1.62755	-0.0761629	-0.258031	0.723424	-0.275561	-0.211675	0.978992	-0.248919	-0.400498	0.0575672	-0.0345174	-0.464234	0.500995	-0.104683	-0.169466	0.972393	-0.00394503	-0.258294	1.40884	-0.152876	-0.383945	0.816435	-0.141249	-0.444691	0.371602	-0.134561	-0.637247	0.064779	-0.0425233	-0.240294	1.16336	-0.229077	-0.273129	0.818841	-0.215223	-0.216578	0.811045	-0.260695	-0.409214	1.2009	0.0160607	-0.161544	1.20523	0.0522748
